<svg xmlns="http://www.w3.org/2000/svg" viewBox="0 0 1055 128" width="1055" height="128" role="img" aria-label="pcg-ts"><title>pcg-ts</title><g fill="#ffffff" fill-rule="nonzero" transform="translate(-9.14,127.96)"><path d="M147.76,-95.97L147.76,-127.96L9.14,-127.96L9.14,-95.97L147.76,-95.97ZM147.762,-95.97L147.762,-63.98L41.13,-63.98L9.14,-31.99L9.14,0L41.13,0L41.13,-31.99L147.762,-31.99L179.752,-63.98L179.752,-95.97L147.762,-95.97Z"/><path d="M368.768,-95.97L368.768,-127.96L230.145,-127.96L198.155,-95.97L198.155,-31.99L230.139,-31.99L230.139,0L368.768,0L368.768,-31.99L230.145,-31.99L230.145,-95.97L368.768,-95.97Z"/><path d="M557.783,-95.97L557.783,-127.96L419.16,-127.96L387.17,-95.97L387.17,-31.99L419.16,-31.99L419.16,-95.97L557.783,-95.97ZM478.925,0L510.917,-31.99L525.793,-31.99L525.793,0L557.783,0L557.783,-63.98L497.696,-63.98L465.706,-31.99L419.16,-31.99L419.16,0L478.925,0Z"/><rect x="576.186" y="-63.98" width="127.96" height="31.99"/><g transform="translate(-18.4628,0)"><path d="M823.908,0L823.908,-95.97L791.918,-95.97L791.918,0L823.908,0ZM893.218,-95.97L893.218,-127.96L823.911,-127.96L823.911,-95.97L893.218,-95.97ZM791.912,-95.97L791.912,-127.96L722.608,-127.96L722.608,-95.97L791.912,-95.97Z"/></g><g transform="translate(884.017944,0)"><path d="M41.13,-95.97L147.762,-95.97L147.762,-127.96L41.13,-127.96L9.14,-95.97L9.14,-63.98L179.752,0L179.752,-34.149L41.13,-86.156L41.13,-95.97ZM41.13,0L41.13,-31.99L9.14,-31.99L9.14,0L41.13,0ZM179.755,-63.986L179.755,-95.97L147.765,-95.97L147.765,-63.986L179.755,-63.986Z"/></g></g></svg>
